<?xml version="1.0" encoding="utf-8"?>
<!-- Generator: Adobe Illustrator 23.0.6, SVG Export Plug-In . SVG Version: 6.00 Build 0)  -->
<svg version="1.1" id="Layer_1" xmlns="http://www.w3.org/2000/svg" xmlns:xlink="http://www.w3.org/1999/xlink" x="0px" y="0px"
	 viewBox="0 0 296.53 284.21" style="enable-background:new 0 0 296.53 284.21;" xml:space="preserve">
<style type="text/css">
	.st0{fill:#393838;}
	.st1{fill:#E5E3E3;}
	.st2{fill:#F7F7F7;}
</style>
<path class="st0" d="M17.53,130.3c1.54-3.52,1.44-7.37,2.18-11.04c5.64-27.84,18.7-51.55,39.34-71.01
	c20.41-19.24,44.62-30.72,72.35-34.84c0.94-0.14,2.22,0.32,2.82-0.97c9.82,0,19.64,0,29.47,0c4.16,1.34,8.55,1.41,12.8,2.34
	c35.95,7.85,64.21,26.97,84.62,57.61c11.83,17.77,18.49,37.42,20.96,58.55c0.07,0.61-0.28,1.43,0.67,1.72c0,8.45,0,16.89,0,25.34
	c-1.62,2.36-1.21,5.18-1.65,7.78c-5.8,34.25-22.31,62.17-49.48,83.72c-18.35,14.55-39.33,23.19-62.43,26.82
	c-2.43,0.38-5,0.03-7.26,1.32c-8.25,0-16.5,0-24.75,0c-2.46-1.66-5.39-1.18-8.08-1.63c-34.02-5.76-61.83-22.1-83.33-49.02
	C30.49,207.88,21.55,186,18.24,161.8c-0.1-0.7,0.3-1.63-0.71-2.03C17.53,149.95,17.53,140.13,17.53,130.3z M150.15,273.53
	c71.2-0.04,128.35-57.45,128.51-128.81c0.15-69-55.49-128.21-127.96-128.57C78.64,15.8,20.81,73.68,21.23,145.69
	C21.65,217.92,80.72,274,150.15,273.53z"/>
<path class="st0" d="M141.51,212.21c-4.88-0.81-9.31-1.51-13.73-2.3c-1.14-0.2-1.25,0.58-1.6,1.26
	c-4.62,9.08-11.34,12.43-21.17,10.52c-2.47-0.48-4.91-1.24-5.5-4.1c-0.56-2.76,0.87-4.61,3.24-5.98c2.15-1.24,3.27-3.35,3.76-5.73
	c1.91-9.2,4.02-18.37,5.56-27.63c1-6-0.86-11.55-5.43-15.75c-6.37-5.86-10.18-13.08-12.15-21.37c-1.42-5.96-1.24-11.8,1.15-17.55
	c1.59-3.84,2.6-7.87,1.39-12.04c-1.09-3.76-3.03-6.64-7.42-7.29c-5.26-0.78-10.99-6.8-11.91-12.11c-0.19-1.06,0.18-1.84,0.99-2.58
	c3.05-2.79,5.05-6.32,6.01-10.26c1.65-6.77,6.62-9.9,12.54-11.96c2.39-0.83,3.43-1.44,2.18-4.24c-1.37-3.05-1.61-6.48-1.06-9.83
	c0.38-2.29,1.88-2.91,3.13-1.24c6.56,8.77,15.8,14.62,23.75,21.87c6.17,5.62,10.74,12.04,12.36,20.16
	c2.39,11.99,10.22,18.09,21.59,18.89c18.34,1.28,28.32,12.05,34.54,27.85c4.74,12.04,6.84,24.67,8.17,37.46
	c0.48,4.68,0.84,9.37,1.32,14.76c6.98-6.84,12.74-13.66,13.61-23.38c0.59-6.57-1.28-12.6-4.15-18.4
	c-4.76-9.65-10.43-18.83-14.66-28.75c-3.16-7.42-5.7-15.06-6.44-23.1c-1.07-11.68,4.13-23.28,15.86-27.79
	c9.17-3.53,17.72-1.57,25.17,4.87c0.79,0.69,1.44,1.61,1.97,2.53c1.27,2.2,1.54,4.54-0.15,6.59c-1.7,2.06-4.02,1.74-6.22,0.92
	c-1.18-0.44-2.39-0.98-3.37-1.76c-5.16-4.1-11.54-3.6-15.68,1.78c-5.33,6.94-6.16,14.86-3.86,23.14c1.72,6.18,4.91,11.7,8.16,17.18
	c4.54,7.65,9.32,15.15,12.78,23.41c10.3,24.58,0.95,47.25-20.74,60.25c-1.19,0.71-2.31,1.45-3.2,2.52c-4.97,5.92-11.5,8.8-19.04,9.1
	c-10.59,0.42-21.2,0.49-31.8,0.64c-2.94,0.04-5.86-0.32-8.72-1.07c-2.47-0.64-4.88-1.62-5.41-4.33
	C136.82,214.77,139.36,213.9,141.51,212.21z"/>
</svg>
