<?xml version="1.0" encoding="utf-8"?>
<!-- Generator: Adobe Illustrator 23.0.6, SVG Export Plug-In . SVG Version: 6.00 Build 0)  -->
<svg version="1.1" id="Layer_1" xmlns="http://www.w3.org/2000/svg" xmlns:xlink="http://www.w3.org/1999/xlink" x="0px" y="0px"
	 viewBox="0 0 296.53 284.21" style="enable-background:new 0 0 296.53 284.21;" xml:space="preserve">
<style type="text/css">
	.st0{fill:#393838;}
	.st1{fill:#E5E3E3;}
	.st2{fill:#F7F7F7;}
</style>
<path class="st0" d="M282.72,159.77c-1.01,0.4-0.62,1.34-0.71,2.03c-3.31,24.2-12.25,46.08-27.51,65.18
	C233,253.9,205.19,270.24,171.17,276c-2.69,0.46-5.62-0.03-8.08,1.63c-8.25,0-16.5,0-24.75,0c-2.27-1.29-4.83-0.94-7.26-1.32
	c-23.09-3.63-44.08-12.27-62.43-26.82c-27.17-21.54-43.68-49.47-49.48-83.72c-0.44-2.6-0.02-5.42-1.65-7.78c0-8.45,0-16.89,0-25.34
	c0.95-0.28,0.6-1.11,0.67-1.72c2.47-21.14,9.13-40.78,20.96-58.55c20.4-30.64,48.67-49.77,84.62-57.61c4.24-0.93,8.63-1,12.8-2.34
	c9.82,0,19.64,0,29.47,0c0.59,1.29,1.88,0.83,2.82,0.97c27.73,4.13,51.94,15.6,72.35,34.84c20.65,19.46,33.71,43.17,39.34,71.01
	c0.74,3.68,0.64,7.53,2.18,11.04C282.72,140.13,282.72,149.95,282.72,159.77z M279.02,145.69c0.42-72-57.41-129.89-129.46-129.53
	C77.08,16.51,21.44,75.72,21.6,144.72c0.16,71.36,57.3,128.78,128.51,128.81C219.54,274,278.6,217.92,279.02,145.69z"/>
<path class="st0" d="M158.74,212.21c4.88-0.81,9.31-1.51,13.73-2.3c1.14-0.2,1.25,0.58,1.6,1.26c4.62,9.08,11.34,12.43,21.17,10.52
	c2.47-0.48,4.91-1.24,5.5-4.1c0.56-2.76-0.87-4.61-3.24-5.98c-2.15-1.24-3.27-3.35-3.76-5.73c-1.91-9.2-4.02-18.37-5.56-27.63
	c-1-6,0.86-11.55,5.43-15.75c6.37-5.86,10.18-13.08,12.15-21.37c1.42-5.96,1.24-11.8-1.15-17.55c-1.59-3.84-2.6-7.87-1.39-12.04
	c1.09-3.76,3.03-6.64,7.42-7.29c5.26-0.78,10.99-6.8,11.91-12.11c0.19-1.06-0.18-1.84-0.99-2.58c-3.05-2.79-5.05-6.32-6.01-10.26
	c-1.65-6.77-6.62-9.9-12.54-11.96c-2.39-0.83-3.43-1.44-2.18-4.24c1.37-3.05,1.61-6.48,1.06-9.83c-0.38-2.29-1.88-2.91-3.13-1.24
	c-6.56,8.77-15.8,14.62-23.75,21.87c-6.17,5.62-10.74,12.04-12.36,20.16c-2.39,11.99-10.22,18.09-21.59,18.89
	c-18.34,1.28-28.32,12.05-34.54,27.85c-4.74,12.04-6.84,24.67-8.17,37.46c-0.48,4.68-0.84,9.37-1.32,14.76
	c-6.98-6.84-12.74-13.66-13.61-23.38c-0.59-6.57,1.28-12.6,4.15-18.4c4.76-9.65,10.43-18.83,14.66-28.75
	c3.16-7.42,5.7-15.06,6.44-23.1c1.07-11.68-4.13-23.28-15.86-27.79c-9.17-3.53-17.72-1.57-25.17,4.87
	c-0.79,0.69-1.44,1.61-1.97,2.53c-1.27,2.2-1.54,4.54,0.15,6.59c1.7,2.06,4.02,1.74,6.22,0.92c1.18-0.44,2.39-0.98,3.37-1.76
	c5.16-4.1,11.54-3.6,15.68,1.78c5.33,6.94,6.16,14.86,3.86,23.14c-1.72,6.18-4.91,11.7-8.16,17.18
	c-4.54,7.65-9.32,15.15-12.78,23.41c-10.3,24.58-0.95,47.25,20.74,60.25c1.19,0.71,2.31,1.45,3.2,2.52c4.97,5.92,11.5,8.8,19.04,9.1
	c10.59,0.42,21.2,0.49,31.8,0.64c2.94,0.04,5.86-0.32,8.72-1.07c2.47-0.64,4.88-1.62,5.41-4.33
	C163.44,214.77,160.89,213.9,158.74,212.21z"/>
</svg>
