<?xml version="1.0" encoding="utf-8"?>
<!-- Generator: Adobe Illustrator 23.0.6, SVG Export Plug-In . SVG Version: 6.00 Build 0)  -->
<svg version="1.1" id="Layer_1" xmlns="http://www.w3.org/2000/svg" xmlns:xlink="http://www.w3.org/1999/xlink" x="0px" y="0px"
	 viewBox="0 0 633.47 284.21" style="enable-background:new 0 0 633.47 284.21;" xml:space="preserve">
<style type="text/css">
	.st0{fill:#393838;}
	.st1{fill:#E5E3E3;}
	.st2{fill:#F7F7F7;}
</style>
<g>
	<path class="st0" d="M50.9,52.49c0.91-0.78,1.68-1.64,1.95-2.85c1.44-0.79,2.19-2.09,2.71-3.57c0.39-0.49,0.77-0.99,1.16-1.48
		c7.03-7.27,15.22-13.17,23.13-19.38c3.18-2.5,2.83-4.04-0.22-6.1c-3.52-2.37-7.42-3.47-11.5-4.27c-3.83-0.75-5.01,0.83-5.31,4.56
		c-0.56,6.96-0.42,14.16-4.37,20.42c-2.42-0.64-2.25-3.13-3.36-4.71c-0.18-0.61-0.37-1.22-0.55-1.82c-0.51-2.86-1.02-5.72-1.53-8.58
		c0.07-0.08,0.21-0.18,0.19-0.24c-0.05-0.19-0.16-0.36-0.25-0.54c-0.03-2.6-0.15-5.21-0.09-7.81c0.14-5.87,2.43-8.27,8.26-8.86
		c6.69-0.68,13.13,0.75,19.44,2.65c18.42,5.56,35.69,13.8,52.61,22.82c10,5.33,15.06,13.9,16.54,24.96
		c0.72,5.36,1.95,10.65,3.46,15.92c2.56-7.54,3.1-15.24,3.65-22.92c0.54-7.48,1.52-8.73,9.09-8.84c13.38-0.19,25.92,4.04,38.63,7.51
		c24.34,6.65,44.53,20.13,62.14,37.67c23.02,22.93,30.8,50.98,25.64,82.63c-8.25,50.65-38.9,81.99-86.76,96.85
		c-40.43,12.55-80.15,7.73-118.06-10.19c-14.66-6.93-27.76-16.78-37.11-30.68c-2.54-3.77-2.52-8.77,0.34-11.88
		c3.02-3.29,7.95-3.69,12.14-0.79c8.41,5.83,17.08,11.28,25.7,16.79c12.59,8.05,26.21,12.16,41.05,12.98
		c33.18,1.85,65.04-3.08,94.86-18.34c6.1-3.12,12.35-6.3,16-12.62c0.74-1.29,2.06-2.62,1.09-4.19c-0.95-1.54-2.76-1.23-4.21-0.95
		c-11.27,2.18-22.51,4.52-33.79,6.68c-18.73,3.57-37.41,4.26-55.92-1.38c-4.41-1.34-8.68-3.09-12.31-6.03
		c-4.79-3.87-6.94-8.73-5.75-15c1.25-6.59,5.51-10,11.62-11.52c4.08-1.01,8.18-0.9,12.26,0.32c5.45,1.63,10.99,2.78,16.74,2.64
		c5.93-0.14,10.17-3.15,13.19-7.92c2.54-3.99,1.54-6.4-3.18-6.92c-11.29-1.24-22.42-3.16-33.38-6.18
		c-5.34-1.47-10.63-3.03-15.25-6.19c-3.69-2.52-7.76-3.45-12.14-3.59c-9.8-0.32-19.44,0.09-29.21,2
		c-12.96,2.54-25.92,1.69-37.36-6.35l0.08,0.09c-8.5-7.85-16.84-15.84-23.73-25.2c-9.18-12.46-17.91-25.21-23.61-39.73
		C3.17,76.12,4.73,72.96,11,70.69c7.39-2.68,15.05-4.05,22.86-4.58c1.27-0.09,3.13-0.83,3.64,0.86c0.43,1.43-1.28,2.3-2.27,3.17
		c-3.2,2.82-7.22,3.91-11.2,5.05c-1.47,0.42-2.95,0.81-4.44,1.17c-6.9,1.67-9.33,2.07-4.82,11.07c1.99,3.97,4.63,7.55,7.59,10.89
		c1.29,1.46,2.32,2.09,3.27-0.23c6.3-15.34,15.4-29.15,23.72-43.39C50.23,54.21,50.85,53.55,50.9,52.49z M111.89,59.46
		c-0.32-1.45,0.56-3.54-1.55-4.65c-1.17-0.62-2.42-0.65-3.42,0.27c-1.43,1.32-1.09,2.99-0.78,4.69c0.82,4.58-0.48,8.05-5.36,9.42
		c-0.8,0.22-1.48,0.58-1.41,1.48c0.09,1.1,0.97,1.47,1.92,1.61c2.08,0.3,4.01-0.18,5.48-1.68C109.73,67.58,111.9,64.14,111.89,59.46
		z M93.35,101.97c8.51,0.9,13.5-3.8,12.56-11.37c-0.13-1.03-0.11-2.32-1.21-2.79c-1.27-0.54-1.83,0.73-2.54,1.47
		C98.62,92.9,95.96,97.15,93.35,101.97z M78.17,107.85c-0.33-1.85-0.31-4.55-3.26-4.31c-3.18,0.26-1.85,2.94-1.64,4.67
		c0.38,3.08,0.02,5.51-3.62,6.12c-1.02,0.17-2.41,0.16-2.18,1.65c0.2,1.29,1.64,1.25,2.61,1.35
		C74.12,117.76,78.11,113.13,78.17,107.85z"/>
	<path class="st0" d="M128.74,22.88c1.38-4.96,2.86-10.38,4.39-15.78c0.38-1.35,1.3-2.01,2.77-1.63c1.59,0.41,1.77,1.73,1.45,2.9
		c-1.63,6.01-3.44,11.97-5.86,17.72c-0.31,0.73-0.77,1.57-1.61,1.06C128.49,26.29,128.98,24.71,128.74,22.88z"/>
	<path class="st0" d="M52.89,147.22c0,3.32-1.64,5.51-4.61,6.86c-2.65,1.2-4.96,2.87-6.85,5.13c-1.01,1.22-2.46,2.27-3.94,1.15
		c-1.7-1.28-0.73-3.02,0.01-4.53c0.19-0.39,0.51-0.83,0.88-1.02c4.9-2.43,9.32-5.8,14.59-7.51
		C52.97,147.3,52.89,147.22,52.89,147.22z"/>
	<path class="st0" d="M137.66,29.48c2.19-6.64,7.11-11.31,11.86-16.08c0.65-0.66,1.78-0.6,2.47,0.2c0.96,1.1,0.11,2.2-0.55,2.84
		C146.91,20.85,142.27,25.15,137.66,29.48z"/>
	<path class="st0" d="M58.52,157.28c1.26,0.48,1.24,1.48,0.95,2.32c-1.41,4.03-2.91,8.03-4.42,12.03c-0.33,0.87-0.95,1.68-2.06,1.39
		c-1.07-0.27-1.4-1.2-1.22-2.16c0.86-4.75,3.06-8.93,5.72-12.88C57.71,157.63,58.2,157.48,58.52,157.28z"/>
	<path class="st0" d="M70.44,171.62c0,1.38,0.03,2.76-0.01,4.14c-0.03,1.02,0.24,2.24-1.5,2.17c-1.36-0.06-1.83-0.81-2.04-2
		c-0.73-4.11-0.48-8.25-0.31-12.38c0.02-0.62,0.69-1.57,1.23-1.72c1.06-0.3,1.6,0.75,1.74,1.59c0.45,2.71,0.74,5.45,1.1,8.18
		C70.57,171.6,70.51,171.61,70.44,171.62z"/>
	<path class="st0" d="M143.66,35.77c3.27-3.16,6.35-5.23,9.98-6.39c1.29-0.41,2.9-0.51,3.61,0.99c0.95,1.99-1.03,2.3-2.12,2.68
		C151.7,34.24,148.65,37,143.66,35.77z"/>
	<path class="st1" d="M55.56,46.07c-0.52,1.48-1.27,2.78-2.71,3.57C52.8,47.73,53.35,46.27,55.56,46.07z"/>
	<path class="st1" d="M54.53,33.28c0.18,0.61,0.37,1.22,0.55,1.82C54.02,34.76,53.43,34.28,54.53,33.28z"/>
	<path class="st1" d="M50.9,52.49c-0.05,1.06-0.67,1.72-1.55,2.2c-0.04-0.72-0.09-1.43-0.13-2.15l-0.01,0.01
		C49.78,52.53,50.34,52.51,50.9,52.49z"/>
	<path class="st1" d="M52.95,23.92c0.09,0.18,0.2,0.35,0.25,0.54c0.02,0.06-0.12,0.16-0.19,0.24
		C52.85,24.45,52.83,24.19,52.95,23.92z"/>
	<path class="st1" d="M49.23,52.54c-0.13-0.07-0.25-0.13-0.38-0.2C48.97,52.41,49.09,52.48,49.23,52.54
		C49.22,52.55,49.23,52.54,49.23,52.54z"/>
	<path class="st1" d="M111.89,59.46c0.01,4.68-2.16,8.12-5.11,11.13c-1.47,1.5-3.4,1.97-5.48,1.68c-0.96-0.14-1.84-0.5-1.92-1.61
		c-0.07-0.9,0.61-1.25,1.41-1.48c4.88-1.37,6.18-4.83,5.36-9.42c-0.31-1.71-0.65-3.38,0.78-4.69c1-0.92,2.24-0.89,3.42-0.27
		C112.45,55.92,111.57,58.01,111.89,59.46z"/>
	<path class="st1" d="M93.35,101.97c2.61-4.82,5.27-9.06,8.81-12.69c0.72-0.73,1.27-2,2.54-1.47c1.1,0.47,1.08,1.75,1.21,2.79
		C106.85,98.17,101.86,102.87,93.35,101.97z"/>
	<path class="st1" d="M78.17,107.85c-0.07,5.28-4.06,9.91-8.09,9.49c-0.97-0.1-2.41-0.06-2.61-1.35c-0.23-1.5,1.16-1.48,2.18-1.65
		c3.64-0.62,3.99-3.04,3.62-6.12c-0.21-1.73-1.54-4.41,1.64-4.67C77.87,103.3,77.84,106,78.17,107.85z"/>
</g>
<g>
	<path class="st0" d="M446.43,128.19c-26.18,15.67-37.89,11.58-42.81-14.73c-14.03,15.38-32.16,22.35-52.03,25.06
		c-22.99,3.13-42.9-15.56-39.13-38.63c6.3-38.53,27.76-66.85,63.85-82.64c15.35-6.72,31.11,5.21,30.3,21.52
		c-0.21,4.26-0.97,8.32-5.87,9.46c-5.1,1.18-9.54-0.04-11.82-5.23c-1.24-2.84-2.37-4.41-5.98-3.27
		c-19.57,6.21-45.43,39.71-46.17,60.12c-0.03,0.9-0.01,1.8,0.02,2.7c0.43,10.76,3.23,13.37,13.76,12.1
		c7.65-0.92,14.94-3.23,21.62-7.17c3.49-2.06,6.87-4.28,10.34-6.37c11.4-6.86,14.33-6.38,22.83,4.02
		c3.36-10.47,7.15-20.31,13.32-29.28c13.02-18.92,30.88-25.74,53.07-23.38c8.03,0.85,12.31,6.59,10.57,15.4
		c-2.92,14.78-6.37,29.45-9.36,44.21c-1.11,5.49-1.27,11.18-2.35,16.67c-1.58,8.02-5.65,11.38-12.73,11.23
		C450.33,139.83,448.16,137.67,446.43,128.19z M457.17,77.74c0.81-4.52-0.94-4.65-4.45-3.24c-3.21,1.28-5.89,3.24-8.39,5.44
		c-9.39,8.24-15.65,18.36-17.87,30.77c-0.27,1.5-0.72,3.28,0.81,4.36c1.25,0.89,2.61,0.26,3.73-0.57
		C443.73,105.07,453.82,93.76,457.17,77.74z"/>
	<path class="st0" d="M494.44,194.15c-1.71,7.25-3.08,13.02-4.42,18.8c-3.08,13.35-6.93,26.52-8.16,40.29
		c-0.79,8.81-5.18,12.29-13.21,12c-7.6-0.27-9.71-2.39-11.33-11.9c-3.7,2.28-7.08,4.72-10.76,6.57
		c-15.09,7.59-31.61-2.26-30.75-19.16c1.31-25.93,14.1-45.8,36.18-58.97c10.47-6.25,22.88-4.19,34.43-3.05
		c6.41,0.63,8.49,6.6,9.06,13.39c3.75-6.69,9.44-8.06,15.98-7.25c3.08,0.38,3.88-1.65,4.32-4c1.4-7.5,3.74-14.79,3.68-22.6
		c-0.07-8.75,4.17-13.69,10.68-13.64c7.29,0.06,13.48,7.1,12.72,15.32c-0.49,5.34-1.89,10.62-3.21,15.85
		c-1.11,4.39,0.17,5.14,4.33,4.02c6.48-1.75,13.05-3.26,19.67-4.36c5.53-0.91,10.55,0.39,12.33,6.6c1.7,5.91-1.85,12.32-8.31,14.26
		c-10.12,3.03-20.37,5.67-30.65,8.1c-3.83,0.9-5.66,2.62-6.43,6.52c-1.36,6.85-3.08,13.64-3,20.66c0.08,6.32,3.44,8.44,9.21,5.58
		c4.85-2.41,8.87-5.95,12.07-10.47c2.99-4.21,6.37-8.15,9.63-12.16c2.78-3.41,6.31-4.24,10.25-2.38c4.18,1.98,5.17,5.75,3.83,9.7
		c-4.21,12.44-9.19,24.42-20.4,32.61c-11.13,8.13-24.98,9.53-35.39,3.18c-9.54-5.82-13.97-17.75-11.72-31.51
		c0.36-2.22,0.61-4.46,1.03-6.66c1.26-6.49,2.57-12.74-6.2-15.49C496.51,202.95,496.71,198.46,494.44,194.15z M437.66,236.09
		c-0.21,3.74,0.59,5.81,3.68,3.74c13.35-8.91,23.97-19.97,27.61-36.32c0.98-4.42-0.47-5.22-4.52-3.7
		C452.64,204.24,437.86,224.61,437.66,236.09z"/>
	<path class="st0" d="M551.91,78.32c-8.42,4.02-14.91,3.06-20.06-3.54c-2.11-2.7-4.51-1.66-6.55-0.2
		c-7.6,5.42-14.36,11.68-16.51,21.24c-2.46,10.94-5.69,21.72-5.68,33.15c0.01,6.32-5.3,10.63-11.7,10.52
		c-6.29-0.11-11.59-4.8-10.9-11.18c1.5-13.83,3.71-27.59,5.93-41.33c1.18-7.33,2.66-14.58,2.58-22.07c-0.03-2.45,0.4-4.94,0.93-7.35
		c0.97-4.39,2.91-8.12,7.89-9.03c4.96-0.91,9.26,0.74,11.56,5.05c2.07,3.88,3.46,3.26,6.44,1.09c8.76-6.39,18.33-7.19,27.98-2.25
		c8.42,4.31,11.39,11.87,10.2,22.89c5.33-5.43,9.02-9.87,13.37-13.49c9.49-7.88,19.98-12.17,32.94-9.87
		c14.39,2.55,19.07,16.91,13.7,29.21c-4.39,10.06-13.48,14.73-22.99,18.53c-6.26,2.5-12.88,3.91-19.53,5.1
		c-2.56,0.46-5.64,0.39-5.3,4.51c0.32,3.89,2.6,5.44,6.15,5.86c7.75,0.9,14.68-1.31,21.1-5.47c3.96-2.56,7.76-5.43,11.9-7.65
		c3.81-2.04,8.21-3.63,11.9,0.02c3.23,3.19,2.65,7.31,1.38,11.38c-2.3,7.33-8.37,11.05-14.37,14.42
		c-12.69,7.14-26.31,10.17-40.91,7.51c-12.41-2.26-20.11-11.19-20.3-23.88c-0.05-2.94-0.12-5.71-1.24-8.56
		c-2.3-5.85-0.9-11.18,4.05-15.04C548.71,85.68,550.33,83.03,551.91,78.32z M578.87,81.09c4.26,0.01,7.53-2.14,10.74-4.38
		c1.08-0.75,2.19-1.84,1.08-3.27c-0.81-1.04-2.04-0.65-3.05-0.11C584.17,75.17,580.81,77.15,578.87,81.09z M554.21,74.2
		c-0.15,0.15-0.45,0.33-0.42,0.44c0.07,0.32,0.27,0.61,0.42,0.91c0.15-0.15,0.45-0.33,0.42-0.44
		C554.57,74.79,554.37,74.5,554.21,74.2z"/>
	<path class="st0" d="M322.82,225.21c0.31-15.75,7.69-28.8,15.87-41.6c12.31-19.28,28.01-34.65,49.91-42.45
		c15.78-5.62,30.88,6.41,29.37,22.79c-0.4,4.37-1.57,8.07-6.53,8.93c-4.94,0.85-9.27-0.52-11.07-5.46c-1.5-4.11-3.66-4.82-7.06-2.8
		c-21.92,12.98-39.89,29.25-45.78,55.45c-0.39,1.74-0.56,3.57-0.51,5.35c0.31,11.54,3.64,14.33,15.05,13
		c12.97-1.51,23.57-8.44,34.4-14.85c3.89-2.3,7.77-3.54,12.09-1.26c8.64,4.56,6.68,13.41,2.26,18.79
		c-4.52,5.5-10.68,8.79-17.02,11.84c-11.89,5.73-24.33,9.32-37.5,10.14c-16.85,1.05-31.96-14.3-33.46-33.83
		C322.73,227.92,322.82,226.56,322.82,225.21z"/>
	<path class="st1" d="M578.87,81.09c1.94-3.94,5.31-5.92,8.77-7.76c1.01-0.54,2.24-0.93,3.05,0.11c1.11,1.43,0,2.52-1.08,3.27
		C586.4,78.95,583.13,81.1,578.87,81.09z"/>
	<path class="st2" d="M554.22,74.2c0.15,0.3,0.35,0.59,0.42,0.91c0.02,0.11-0.27,0.29-0.42,0.44c-0.15-0.3-0.35-0.59-0.42-0.91
		C553.76,74.53,554.06,74.35,554.22,74.2z"/>
</g>
</svg>
